<svg xmlns="http://www.w3.org/2000/svg" width="34" height="40" viewBox="0 0 34 40" fill="none">
  <path d="M27.4167 4.85417H24.8125V2.25C24.8125 1.8356 24.6479 1.43817 24.3549 1.14515C24.0619 0.85212 23.6644 0.6875 23.25 0.6875C22.8356 0.6875 22.4382 0.85212 22.1452 1.14515C21.8522 1.43817 21.6875 1.8356 21.6875 2.25V4.85417H12.3125V2.25C12.3125 1.8356 12.1479 1.43817 11.8549 1.14515C11.5619 0.85212 11.1644 0.6875 10.75 0.6875C10.3356 0.6875 9.9382 0.85212 9.64518 1.14515C9.35215 1.43817 9.18753 1.8356 9.18753 2.25V4.85417H6.58336C5.06389 4.85417 3.60665 5.45778 2.53222 6.53221C1.45779 7.60663 0.854187 9.06387 0.854187 10.5833V33.5C0.854187 35.0195 1.45779 36.4767 2.53222 37.5512C3.60665 38.6256 5.06389 39.2292 6.58336 39.2292H27.4167C28.9362 39.2292 30.3934 38.6256 31.4678 37.5512C32.5423 36.4767 33.1459 35.0195 33.1459 33.5V10.5833C33.1459 9.06387 32.5423 7.60663 31.4678 6.53221C30.3934 5.45778 28.9362 4.85417 27.4167 4.85417ZM6.58336 7.97917H9.18753V10.5833C9.18753 10.9977 9.35215 11.3952 9.64518 11.6882C9.9382 11.9812 10.3356 12.1458 10.75 12.1458C11.1644 12.1458 11.5619 11.9812 11.8549 11.6882C12.1479 11.3952 12.3125 10.9977 12.3125 10.5833V7.97917H21.6875V10.5833C21.6875 10.9977 21.8522 11.3952 22.1452 11.6882C22.4382 11.9812 22.8356 12.1458 23.25 12.1458C23.6644 12.1458 24.0619 11.9812 24.3549 11.6882C24.6479 11.3952 24.8125 10.9977 24.8125 10.5833V7.97917H27.4167C28.1074 7.97917 28.7698 8.25354 29.2581 8.74192C29.7465 9.23029 30.0209 9.89267 30.0209 10.5833V16.3125H3.97919V10.5833C3.97919 9.89267 4.25356 9.23029 4.74193 8.74192C5.23031 8.25354 5.89269 7.97917 6.58336 7.97917ZM27.4167 36.1042H6.58336C5.89269 36.1042 5.23031 35.8298 4.74193 35.3415C4.25356 34.8531 3.97919 34.1907 3.97919 33.5V19.4375H30.0209V33.5C30.0209 34.1907 29.7465 34.8531 29.2581 35.3415C28.7698 35.8298 28.1074 36.1042 27.4167 36.1042Z" fill="#717171"/>
</svg>