<svg width="194" height="54" viewBox="0 0 194 54" fill="none" xmlns="http://www.w3.org/2000/svg">
<path d="M2.95364 24V7.05288H10.023C11.8468 7.05288 13.2752 7.4241 14.3082 8.16654C15.3412 8.90899 15.8577 9.98231 15.8577 11.3865C15.8577 12.3065 15.6398 13.0812 15.204 13.7107C14.7682 14.3401 14.163 14.8163 13.3882 15.1391C12.6296 15.4457 11.7742 15.5991 10.8219 15.5991L11.2577 15.1149C12.4198 15.1149 13.4124 15.2843 14.2356 15.6233C15.0587 15.9622 15.6801 16.4545 16.0998 17.1001C16.5356 17.7457 16.7534 18.5527 16.7534 19.5211C16.7534 20.9414 16.237 22.047 15.204 22.8379C14.171 23.6126 12.6054 24 10.5072 24H2.95364ZM4.18836 22.9348H10.5072C12.1374 22.9348 13.3802 22.6604 14.2356 22.1116C15.091 21.5467 15.5187 20.6509 15.5187 19.4243C15.5187 18.2138 15.091 17.3341 14.2356 16.7854C13.3802 16.2205 12.1374 15.938 10.5072 15.938H4.0431V14.8728H9.97459C11.4433 14.8728 12.5812 14.5903 13.3882 14.0254C14.1952 13.4605 14.5987 12.6131 14.5987 11.4833C14.5987 10.3697 14.1952 9.53038 13.3882 8.96548C12.5812 8.40058 11.4433 8.11812 9.97459 8.11812H4.18836V22.9348ZM27.7921 24.1211C25.6939 24.1211 24.0396 23.5077 22.8291 22.2811C21.6186 21.0544 21.0133 19.2306 21.0133 16.8096V7.05288H22.248V16.7612C22.248 18.8755 22.7322 20.4411 23.7006 21.4579C24.669 22.4748 26.0409 22.9832 27.8164 22.9832C29.5756 22.9832 30.9395 22.4748 31.9079 21.4579C32.8763 20.4411 33.3605 18.8755 33.3605 16.7612V7.05288H34.5952V16.8096C34.5952 19.2306 33.99 21.0544 32.7794 22.2811C31.5689 23.5077 29.9065 24.1211 27.7921 24.1211ZM41.4459 14.8486H50.6216V15.938H41.4459V14.8486ZM41.5912 22.8863H52.05V24H40.3565V7.05288H51.6868V8.16654H41.5912V22.8863ZM56.5518 24V7.05288H57.5928L69.6737 22.4748H69.1168V7.05288H70.3516V24H69.3347L57.2296 8.57812H57.7865V24H56.5518ZM83.4602 24.1211C82.2013 24.1211 81.0311 23.9112 79.9498 23.4916C78.8845 23.0558 77.9484 22.4505 77.1414 21.6758C76.3505 20.885 75.7372 19.973 75.3014 18.9401C74.8656 17.891 74.6477 16.7531 74.6477 15.5264C74.6477 14.2998 74.8656 13.17 75.3014 12.137C75.7372 11.0879 76.3505 10.176 77.1414 9.40126C77.9484 8.6104 78.8845 8.00514 79.9498 7.5855C81.0311 7.14972 82.2013 6.93182 83.4602 6.93182C84.7192 6.93182 85.8813 7.14972 86.9465 7.5855C88.0279 8.00514 88.964 8.60233 89.7549 9.37705C90.5457 10.1518 91.1591 11.0637 91.5949 12.1128C92.0468 13.1458 92.2727 14.2836 92.2727 15.5264C92.2727 16.7692 92.0468 17.9152 91.5949 18.9643C91.1591 19.9973 90.5457 20.9011 89.7549 21.6758C88.964 22.4505 88.0279 23.0558 86.9465 23.4916C85.8813 23.9112 84.7192 24.1211 83.4602 24.1211ZM83.4602 22.9832C84.5416 22.9832 85.5423 22.7976 86.4623 22.4263C87.3823 22.0551 88.1812 21.5306 88.8591 20.8527C89.537 20.1748 90.0615 19.3839 90.4328 18.4801C90.8201 17.5762 91.0138 16.5917 91.0138 15.5264C91.0138 14.445 90.8201 13.4605 90.4328 12.5728C90.0615 11.6689 89.537 10.8781 88.8591 10.2002C88.1812 9.52231 87.3823 8.99776 86.4623 8.62654C85.5423 8.25531 84.5416 8.0697 83.4602 8.0697C82.3788 8.0697 81.3782 8.25531 80.4582 8.62654C79.5382 8.99776 78.7312 9.52231 78.0372 10.2002C77.3593 10.8781 76.8266 11.6689 76.4393 12.5728C76.0681 13.4605 75.8824 14.445 75.8824 15.5264C75.8824 16.5917 76.0681 17.5762 76.4393 18.4801C76.8266 19.3839 77.3593 20.1748 78.0372 20.8527C78.7312 21.5306 79.5382 22.0551 80.4582 22.4263C81.3782 22.7976 82.3788 22.9832 83.4602 22.9832ZM101.01 24.1211C99.751 24.1211 98.5567 23.9112 97.4269 23.4916C96.3132 23.0558 95.4497 22.499 94.8364 21.8211L95.3932 20.9011C95.9743 21.4983 96.7651 22.0067 97.7658 22.4263C98.7826 22.8298 99.8559 23.0316 100.986 23.0316C102.116 23.0316 103.036 22.8863 103.746 22.5958C104.472 22.2891 105.005 21.8856 105.344 21.3853C105.699 20.885 105.876 20.3281 105.876 19.7148C105.876 18.9885 105.683 18.4074 105.295 17.9717C104.908 17.5359 104.399 17.1889 103.77 16.9306C103.14 16.6724 102.455 16.4545 101.712 16.277C100.97 16.0994 100.219 15.9138 99.4605 15.7201C98.7019 15.5103 98.0079 15.244 97.3784 14.9212C96.749 14.5984 96.2406 14.1626 95.8532 13.6138C95.482 13.0489 95.2964 12.3226 95.2964 11.4349C95.2964 10.6279 95.5062 9.88547 95.9258 9.20758C96.3455 8.5297 96.9991 7.98093 97.8869 7.56129C98.7746 7.14165 99.9124 6.93182 101.3 6.93182C102.237 6.93182 103.157 7.06902 104.06 7.3434C104.98 7.61778 105.763 7.989 106.409 8.45707L105.949 9.44968C105.239 8.96548 104.472 8.6104 103.649 8.38444C102.842 8.14233 102.059 8.02128 101.3 8.02128C100.219 8.02128 99.3233 8.17461 98.6132 8.48128C97.903 8.78794 97.3784 9.19951 97.0395 9.716C96.7006 10.2163 96.5311 10.7812 96.5311 11.4107C96.5311 12.137 96.7167 12.7181 97.0879 13.1538C97.4753 13.5896 97.9837 13.9366 98.6132 14.1949C99.2426 14.4531 99.9367 14.671 100.695 14.8486C101.454 15.0261 102.204 15.2198 102.947 15.4296C103.689 15.6233 104.375 15.8815 105.005 16.2043C105.634 16.5271 106.143 16.9629 106.53 17.5117C106.917 18.0604 107.111 18.7706 107.111 19.6422C107.111 20.433 106.893 21.1755 106.457 21.8695C106.021 22.5474 105.352 23.0962 104.448 23.5158C103.56 23.9193 102.414 24.1211 101.01 24.1211ZM120.912 24L128.708 7.05288H129.942L137.738 24H136.406L129.046 7.8276H129.579L122.243 24H120.912ZM123.769 19.2306L124.18 18.1896H134.324L134.736 19.2306H123.769ZM140.815 24V7.05288H142.049V24H140.815ZM147.955 24V7.05288H154.031C155.452 7.05288 156.67 7.27884 157.687 7.73076C158.704 8.18268 159.487 8.83636 160.036 9.69179C160.584 10.5311 160.859 11.556 160.859 12.7665C160.859 13.9447 160.584 14.9615 160.036 15.817C159.487 16.6562 158.704 17.3099 157.687 17.778C156.67 18.2299 155.452 18.4559 154.031 18.4559H148.633L149.189 17.8748V24H147.955ZM159.721 24L155.315 17.8506H156.719L161.125 24H159.721ZM149.189 17.9475L148.633 17.3664H154.031C155.855 17.3664 157.235 16.9629 158.171 16.1559C159.124 15.3489 159.6 14.2191 159.6 12.7665C159.6 11.2977 159.124 10.1679 158.171 9.37705C157.235 8.57005 155.855 8.16654 154.031 8.16654H148.633L149.189 7.56129V17.9475ZM166.469 14.8486H175.644V15.938H166.469V14.8486ZM166.614 22.8863H177.073V24H165.379V7.05288H176.71V8.16654H166.614V22.8863ZM186.029 24.1211C184.77 24.1211 183.576 23.9112 182.446 23.4916C181.333 23.0558 180.469 22.499 179.856 21.8211L180.413 20.9011C180.994 21.4983 181.784 22.0067 182.785 22.4263C183.802 22.8298 184.875 23.0316 186.005 23.0316C187.135 23.0316 188.055 22.8863 188.765 22.5958C189.491 22.2891 190.024 21.8856 190.363 21.3853C190.718 20.885 190.896 20.3281 190.896 19.7148C190.896 18.9885 190.702 18.4074 190.315 17.9717C189.927 17.5359 189.419 17.1889 188.789 16.9306C188.16 16.6724 187.474 16.4545 186.731 16.277C185.989 16.0994 185.238 15.9138 184.48 15.7201C183.721 15.5103 183.027 15.244 182.398 14.9212C181.768 14.5984 181.26 14.1626 180.873 13.6138C180.501 13.0489 180.316 12.3226 180.316 11.4349C180.316 10.6279 180.526 9.88547 180.945 9.20758C181.365 8.5297 182.018 7.98093 182.906 7.56129C183.794 7.14165 184.932 6.93182 186.32 6.93182C187.256 6.93182 188.176 7.06902 189.08 7.3434C190 7.61778 190.783 7.989 191.428 8.45707L190.968 9.44968C190.258 8.96548 189.491 8.6104 188.668 8.38444C187.861 8.14233 187.078 8.02128 186.32 8.02128C185.238 8.02128 184.343 8.17461 183.632 8.48128C182.922 8.78794 182.398 9.19951 182.059 9.716C181.72 10.2163 181.55 10.7812 181.55 11.4107C181.55 12.137 181.736 12.7181 182.107 13.1538C182.495 13.5896 183.003 13.9366 183.632 14.1949C184.262 14.4531 184.956 14.671 185.715 14.8486C186.473 15.0261 187.224 15.2198 187.966 15.4296C188.709 15.6233 189.395 15.8815 190.024 16.2043C190.653 16.5271 191.162 16.9629 191.549 17.5117C191.937 18.0604 192.13 18.7706 192.13 19.6422C192.13 20.433 191.912 21.1755 191.477 21.8695C191.041 22.5474 190.371 23.0962 189.467 23.5158C188.579 23.9193 187.433 24.1211 186.029 24.1211Z" fill="white"/>
<g filter="url(#filter0_d_738_4578)">
<path d="M55.3746 44.3632C54.0619 44.3632 53.0612 44.0511 52.3726 43.4271C51.7054 42.8245 51.3719 41.9852 51.3719 40.9092C51.3719 40.6079 51.4041 40.2851 51.4687 39.9408C51.6193 38.9939 52.0067 38.1008 52.6308 37.2615C53.2549 36.4007 54.0188 35.626 54.9227 34.9374C55.8481 34.2487 56.8165 33.6999 57.8279 33.2911C58.8609 32.8822 59.84 32.667 60.7654 32.6455C60.7439 32.5379 60.7224 32.4195 60.7009 32.2904C60.7009 32.1613 60.7009 32.0429 60.7009 31.9353C59.4312 31.8277 58.2583 31.5802 57.1823 31.1929C56.1278 30.8055 55.2778 30.2998 54.6322 29.6757C54.0081 29.0301 53.696 28.2661 53.696 27.3838C53.696 26.9534 53.7714 26.5445 53.922 26.1571C54.2233 25.3394 54.7075 24.7906 55.3746 24.5108C56.0633 24.2311 56.7411 24.0912 57.4083 24.0912C57.5159 24.0912 57.6235 24.0912 57.7311 24.0912C57.8602 24.0912 57.9786 24.102 58.0862 24.1235C58.5811 24.1665 59.1191 24.3279 59.7002 24.6077C60.3027 24.8659 60.8192 25.2533 61.2496 25.7698C61.3787 25.9204 61.4433 26.028 61.4433 26.0926C61.4433 26.1356 61.4218 26.1571 61.3787 26.1571C61.3357 26.1571 61.2281 26.0926 61.0559 25.9635C60.3027 25.1672 59.4419 24.7368 58.4735 24.6722C58.3874 24.6507 58.2906 24.64 58.183 24.64C58.0754 24.64 57.957 24.64 57.8279 24.64C57.3329 24.64 56.8057 24.7583 56.2462 24.995C55.6867 25.2102 55.2778 25.6622 55.0195 26.3508C54.9334 26.566 54.8689 26.7812 54.8258 26.9964C54.7828 27.2116 54.7613 27.4161 54.7613 27.6097C54.7613 28.3414 55.0303 28.9763 55.5683 29.5143C56.1063 30.0523 56.8272 30.4827 57.7311 30.8055C58.6349 31.1283 59.6248 31.3435 60.7009 31.4511C60.7654 30.5688 61.0344 29.708 61.5079 28.8687C62.0028 28.0079 62.6377 27.2331 63.4124 26.5445C64.2086 25.8343 65.091 25.2748 66.0594 24.8659C67.0493 24.4355 68.0715 24.2203 69.126 24.2203C69.2336 24.2203 69.352 24.2203 69.4811 24.2203C69.6102 24.2203 69.7393 24.2311 69.8684 24.2526C70.5571 24.3172 71.1489 24.5108 71.6439 24.8336C72.1603 25.1349 72.4186 25.5868 72.4186 26.1894C72.4186 26.3616 72.3863 26.566 72.3217 26.8027C72.042 27.7066 71.5255 28.4921 70.7723 29.1592C70.0191 29.8048 69.126 30.332 68.093 30.7409C67.0816 31.1498 66.0271 31.4619 64.9296 31.6771C63.832 31.8707 62.8098 31.9676 61.8629 31.9676H61.4756L61.3142 32.6132C62.1535 32.5701 62.8529 32.71 63.4124 33.0328C63.5846 33.1404 63.6706 33.2588 63.6706 33.3879C63.563 33.6246 63.251 33.743 62.7345 33.743C62.1319 33.743 61.6693 33.6461 61.3465 33.4525C61.0452 33.2588 60.8623 33.0221 60.7977 32.7423C59.9369 32.8714 59.0761 33.1835 58.2153 33.6784C57.376 34.1734 56.6013 34.7867 55.8911 35.5184C55.1809 36.2501 54.5784 37.0463 54.0834 37.9071C53.61 38.7679 53.3087 39.6288 53.1796 40.4896C53.158 40.6832 53.1258 40.8769 53.0827 41.0706C53.0612 41.2643 53.0504 41.4472 53.0504 41.6194C53.0504 42.265 53.2441 42.7815 53.6315 43.1688C54.0188 43.5777 54.7398 43.7821 55.7943 43.7821C56.7411 43.7821 57.7095 43.5454 58.6995 43.072C59.7109 42.5985 60.6471 41.9852 61.5079 41.232C62.3902 40.4573 63.1326 39.6288 63.7352 38.7464C64.3378 37.8641 64.7036 37.0248 64.8327 36.2286C64.8327 36.1855 64.8327 36.1425 64.8327 36.0994C64.8542 36.0349 64.865 35.9918 64.865 35.9703C64.865 35.6906 64.7789 35.4646 64.6068 35.2924C64.4346 35.0988 64.1548 35.0019 63.7675 35.0019C63.6814 35.0019 63.5953 35.0127 63.5092 35.0342C63.4232 35.0342 63.3263 35.045 63.2187 35.0665C62.6161 35.1741 61.9275 35.4861 61.1528 36.0026C60.378 36.5191 59.6464 37.1647 58.9577 37.9394C58.2906 38.6926 57.7849 39.4996 57.4405 40.3604C57.3545 40.4035 57.3007 40.425 57.2791 40.425C57.1715 40.425 57.15 40.2851 57.2146 40.0054C57.4298 39.4243 57.7741 38.811 58.2476 38.1654C58.7425 37.4983 59.3128 36.8849 59.9584 36.3254C60.6255 35.7444 61.3465 35.2709 62.1212 34.9051C62.8959 34.5392 63.6814 34.3563 64.4776 34.3563C65.1017 34.3563 65.5536 34.4962 65.8334 34.776C66.1132 35.0342 66.2531 35.3785 66.2531 35.8089C66.2531 36.4545 65.9948 37.1647 65.4783 37.9394C65.0694 38.585 64.4884 39.2737 63.7352 40.0054C63.0035 40.737 62.175 41.4364 61.2496 42.1036C60.3242 42.7707 59.3558 43.3087 58.3444 43.7176C57.3329 44.148 56.343 44.3632 55.3746 44.3632ZM61.6693 31.5157H61.8952C62.9927 31.5157 64.0688 31.3973 65.1232 31.1606C66.1993 30.9238 67.1892 30.5903 68.093 30.1599C68.9969 29.7295 69.7501 29.213 70.3526 28.6104C70.9767 28.0079 71.3748 27.3407 71.547 26.6091C71.5685 26.523 71.5793 26.4046 71.5793 26.254C71.5793 25.9312 71.4394 25.6514 71.1596 25.4147C70.8799 25.178 70.3311 25.0596 69.5134 25.0596C68.8247 25.0596 68.0177 25.2748 67.0923 25.7052C66.167 26.1356 65.2308 26.792 64.284 27.6743C63.6814 28.2338 63.1541 28.8687 62.7022 29.5788C62.2503 30.2675 61.906 30.9131 61.6693 31.5157ZM67.4409 43.3948C67.1826 43.3948 66.9782 43.3195 66.8275 43.1688C66.6554 43.0182 66.5693 42.846 66.5693 42.6523C66.5693 42.4156 66.6661 42.2219 66.8598 42.0713C66.9674 42.1789 67.1719 42.2327 67.4731 42.2327C67.7529 42.2327 68.0542 42.1897 68.377 42.1036C68.6998 41.996 68.9796 41.8668 69.2163 41.7162C69.9264 41.1997 70.6366 40.4896 71.3468 39.5857C72.0785 38.6603 72.6918 37.778 73.1867 36.9387C73.5741 36.121 73.8861 35.4431 74.1229 34.9051C74.3811 34.3456 74.5102 33.9259 74.5102 33.6461C74.5102 33.4525 74.4349 33.3233 74.2843 33.2588C74.1552 33.2157 74.0583 33.1942 73.9937 33.1942C73.6709 33.1942 73.3159 33.3556 72.9285 33.6784C72.5411 33.9797 72.1323 34.3778 71.7019 34.8728C71.293 35.3678 70.8948 35.8735 70.5075 36.39L67.7637 40.0054C67.4409 40.3497 67.0643 40.7478 66.6339 41.1997C66.2035 41.6516 65.7408 42.0498 65.2458 42.3941C64.7293 42.7169 64.1913 42.8783 63.6318 42.8783C63.5888 42.8783 63.5672 42.8675 63.5672 42.846C63.5672 42.846 63.5995 42.8245 63.6641 42.7815C63.7286 42.7384 63.8255 42.6846 63.9546 42.6201C64.7078 42.2542 65.3964 41.7808 66.0205 41.1997C66.6446 40.6187 67.2257 39.9838 67.7637 39.2952C68.7751 38.004 69.7112 36.7558 70.572 35.5507C71.4329 34.3456 72.3259 33.3987 73.2513 32.71C73.7893 32.3227 74.3381 32.129 74.8976 32.129C75.2419 32.129 75.5324 32.2258 75.7692 32.4195C76.0059 32.5917 76.1242 32.8822 76.1242 33.2911C76.1242 33.7645 75.9413 34.3563 75.5755 35.0665C75.5109 35.1526 75.4464 35.2602 75.3818 35.3893C75.3388 35.4969 75.285 35.6045 75.2204 35.7121C75.6938 35.1956 76.2426 34.6468 76.8667 34.0658C77.5123 33.4632 78.1579 32.9467 78.8035 32.5163C79.4491 32.0859 80.0086 31.8707 80.4821 31.8707C80.7188 31.8707 80.891 31.9461 80.9986 32.0967C81.1277 32.2258 81.1922 32.3765 81.1922 32.5486C81.1922 32.6777 81.16 32.8069 81.0954 32.936C81.0308 33.0651 80.9125 33.1619 80.7403 33.2265C80.5897 33.0759 80.3852 33.0005 80.127 33.0005C79.9118 33.0005 79.6643 33.0543 79.3845 33.1619C79.1263 33.248 78.8573 33.3556 78.5775 33.4847C77.8459 33.8721 77.1142 34.4316 76.3825 35.1633C75.6723 35.8735 75.0375 36.6052 74.478 37.3584C74.1982 38.0255 73.9399 38.7034 73.7032 39.392C73.488 40.0807 73.3804 40.694 73.3804 41.232C73.3804 41.8991 73.6602 42.2327 74.2197 42.2327C74.521 42.2327 74.8761 42.1251 75.285 41.9099C75.823 41.6086 76.3179 41.2212 76.7699 40.7478C77.2433 40.2744 77.6952 39.7902 78.1256 39.2952C78.2117 39.2952 78.2547 39.3598 78.2547 39.4889C78.2547 39.6826 78.2117 39.8332 78.1256 39.9408C77.1787 41.0383 76.361 41.813 75.6723 42.265C75.0052 42.6954 74.2843 42.9106 73.5095 42.9106C73.1652 42.9106 72.7994 42.7707 72.412 42.4909C72.0462 42.2112 71.8633 41.7162 71.8633 41.006C71.8633 40.7693 71.8848 40.5218 71.9278 40.2636C71.9709 40.0054 72.0462 39.7148 72.1538 39.392C71.6803 40.0592 71.1423 40.7263 70.5398 41.3934C69.9587 42.039 69.3992 42.5447 68.8612 42.9106C68.3877 43.2334 67.9143 43.3948 67.4409 43.3948ZM70.8073 50.6901C70.2263 50.6901 69.7421 50.6256 69.3547 50.4964C69.1826 50.4104 69.0104 50.292 68.8382 50.1413C68.6446 49.9907 68.5154 49.797 68.4509 49.5603C68.6876 49.754 68.9566 49.8939 69.2579 49.9799C69.5592 50.0875 69.925 50.1306 70.3554 50.1091C71.6036 50.1091 72.7764 49.7647 73.874 49.0761C74.95 48.3875 75.9614 47.4836 76.9083 46.3646C77.8552 45.267 78.7375 44.0942 79.5553 42.846C80.868 40.8877 82.1162 38.9078 83.2998 36.9065C84.4834 34.8836 85.7208 32.936 87.012 31.0637C87.3133 31.0852 87.4639 31.3005 87.4639 31.7093C87.4639 32.2473 87.1949 33.0651 86.6569 34.1626C86.1189 35.2386 85.3765 36.5083 84.4296 37.9717C84.3435 38.0793 84.2682 38.1977 84.2036 38.3268C84.1391 38.4559 84.0638 38.585 83.9777 38.7141C84.6233 37.9609 85.2904 37.197 85.979 36.4222C86.6892 35.626 87.3886 34.9051 88.0773 34.2595C88.7659 33.5923 89.433 33.0543 90.0786 32.6455C90.7242 32.2366 91.316 32.0321 91.8541 32.0321C92.5427 32.0321 92.887 32.4518 92.887 33.2911C92.887 33.8075 92.7256 34.4532 92.4028 35.2279C92.08 36.0026 91.585 36.8204 90.9179 37.6812C90.509 38.2192 89.9926 38.8002 89.3685 39.4243C88.7659 40.0269 88.0988 40.6079 87.3671 41.1674C86.6569 41.7054 85.9252 42.1466 85.172 42.4909C84.4188 42.8353 83.6872 43.0074 82.977 43.0074C82.3959 43.0074 82.0516 42.8998 81.944 42.6846C81.901 42.6201 81.8902 42.5663 81.9117 42.5232C81.9548 42.4802 81.9871 42.4587 82.0086 42.4587C82.0086 42.4587 82.0624 42.4694 82.17 42.4909C82.2776 42.5125 82.4067 42.5232 82.5573 42.5232C83.0738 42.5232 83.6656 42.3403 84.3328 41.9744C84.9999 41.6086 85.6993 41.1136 86.431 40.4896C87.1842 39.8655 87.8943 39.1661 88.5615 38.3913C89.2932 37.5736 89.9065 36.7666 90.4014 35.9703C90.8964 35.1526 91.2192 34.4854 91.3698 33.969C91.4129 33.7968 91.4344 33.6569 91.4344 33.5493C91.4344 33.3771 91.3914 33.2373 91.3053 33.1297C91.2407 33.0005 91.1008 32.9575 90.8856 33.0005C90.3476 33.1297 89.702 33.5063 88.9488 34.1304C88.1956 34.7544 87.4101 35.4969 86.5924 36.3577C85.7746 37.2185 84.9891 38.0901 84.2359 38.9724C83.5042 39.8332 82.8586 40.5864 82.2991 41.232C81.5029 42.4371 80.599 43.6745 79.5876 44.9442C78.5546 46.2354 77.4571 47.376 76.295 48.3659C75.1114 49.3774 73.874 50.0768 72.5827 50.4642C72.1739 50.6148 71.5821 50.6901 70.8073 50.6901ZM94.435 42.9751C93.3589 42.9751 92.8209 42.4802 92.8209 41.4902C92.8209 41.1674 92.8963 40.7908 93.0469 40.3604C93.1975 39.93 93.4773 39.3598 93.8862 38.6496C94.4457 37.6812 95.2312 36.5406 96.2426 35.2279C97.2756 33.9152 98.3731 32.6347 99.5352 31.3865C100.547 30.246 101.644 29.2022 102.828 28.2553C104.033 27.2869 105.281 26.6198 106.572 26.254C106.766 26.1894 106.992 26.1356 107.25 26.0926C107.508 26.0495 107.777 26.028 108.057 26.028C108.574 26.028 109.015 26.1033 109.381 26.254C109.553 26.3401 109.725 26.4584 109.897 26.6091C110.069 26.7382 110.188 26.9319 110.252 27.1901C110.016 26.9964 109.747 26.8565 109.445 26.7705C109.144 26.6629 108.778 26.6091 108.348 26.6091C107.229 26.6091 106.153 26.9749 105.12 27.7066C104.087 28.4383 103.054 29.3852 102.021 30.5472C101.009 31.6878 99.9441 32.9037 98.8251 34.1949C98.3947 34.6899 97.9212 35.3032 97.4047 36.0349C96.8883 36.7666 96.3933 37.4983 95.9198 38.2299C95.4679 38.9616 95.1021 39.5857 94.8223 40.1022C94.6717 40.3389 94.5533 40.5972 94.4672 40.8769C94.4027 41.1352 94.3704 41.3504 94.3704 41.5225C94.3704 42.039 94.5641 42.2973 94.9514 42.2973C95.3603 42.2973 95.8122 42.1036 96.3072 41.7162C96.8237 41.3288 97.3079 40.8984 97.7598 40.425C98.2333 39.9516 98.5883 39.575 98.8251 39.2952C98.9111 39.2952 98.9542 39.3598 98.9542 39.4889C98.9542 39.6826 98.9111 39.8332 98.8251 39.9408C97.9643 40.9307 97.168 41.6839 96.4363 42.2004C95.7262 42.7169 95.059 42.9751 94.435 42.9751ZM101.7 43.0397C101.076 43.0397 100.635 42.8891 100.377 42.5878C100.097 42.265 99.9569 41.8668 99.9569 41.3934C99.9569 40.7908 100.129 40.0807 100.473 39.2629C100.839 38.4451 101.323 37.6166 101.926 36.7773C102.529 35.938 103.206 35.1633 103.96 34.4532C104.713 33.7215 105.477 33.1404 106.252 32.71C107.048 32.2581 107.812 32.0321 108.543 32.0321C109.081 32.0321 109.469 32.172 109.706 32.4518C109.942 32.7315 110.061 33.0974 110.061 33.5493C110.061 34.1519 109.888 34.8728 109.544 35.7121C109.2 36.5298 108.726 37.3691 108.124 38.2299C107.543 39.0692 106.886 39.8547 106.155 40.5864C105.445 41.3181 104.702 41.9099 103.927 42.3618C103.153 42.8137 102.41 43.0397 101.7 43.0397ZM102.087 42.4264C102.539 42.4264 103.077 42.2004 103.701 41.7485C104.347 41.275 105.003 40.6725 105.67 39.9408C106.338 39.2091 106.951 38.4344 107.51 37.6166C108.092 36.7773 108.554 35.9918 108.899 35.2602C109.264 34.507 109.447 33.8936 109.447 33.4202C109.447 32.9037 109.2 32.6455 108.705 32.6455C108.296 32.6455 107.779 32.8929 107.155 33.3879C106.553 33.8613 105.918 34.4747 105.251 35.2279C104.605 35.9811 103.992 36.7773 103.411 37.6166C102.83 38.4559 102.356 39.2521 101.991 40.0054C101.646 40.7586 101.474 41.3504 101.474 41.7808C101.474 42.2112 101.679 42.4264 102.087 42.4264ZM114.251 42.9429C113.713 42.9429 113.326 42.803 113.089 42.5232C112.874 42.2435 112.766 41.8991 112.766 41.4902C112.766 41.232 112.798 40.9738 112.863 40.7155C112.992 40.0699 113.315 39.392 113.831 38.6819C114.348 37.9717 114.961 37.2615 115.671 36.5514C116.381 35.8412 117.102 35.1956 117.834 34.6146C118.587 34.0335 119.254 33.5493 119.835 33.1619C119.577 33.205 119.244 33.2265 118.835 33.2265C118.361 33.2265 117.866 33.205 117.35 33.1619C116.833 33.0974 116.478 33.0005 116.285 32.8714C116.199 33.0221 115.983 33.3126 115.639 33.743C115.316 34.1519 114.907 34.6468 114.412 35.2279C113.939 35.8089 113.444 36.4007 112.927 37.0033C112.411 37.6059 111.927 38.1761 111.475 38.7141C111.023 39.2306 110.657 39.6395 110.377 39.9408C110.098 40.2636 109.721 40.651 109.248 41.1029C108.753 41.5333 108.268 41.9206 107.795 42.265C107.3 42.6093 106.891 42.7815 106.568 42.7815C106.418 42.7815 106.332 42.7492 106.31 42.6846C106.267 42.6201 106.245 42.577 106.245 42.5555C106.59 42.5555 107.106 42.3188 107.795 41.8453C108.462 41.3504 109.323 40.5003 110.377 39.2952C111.647 37.8318 112.841 36.2608 113.96 34.5823C115.101 32.8822 116.123 31.1175 117.027 29.2883H117.059C117.339 29.2883 117.479 29.5573 117.479 30.0953C117.479 30.5903 117.307 31.1713 116.963 31.8385C116.876 31.9891 116.747 32.1935 116.575 32.4518C117.006 32.5379 117.436 32.6024 117.866 32.6455C118.297 32.667 118.695 32.6777 119.061 32.6777C119.362 32.6777 119.642 32.667 119.9 32.6455C120.158 32.6239 120.363 32.5917 120.513 32.5486C120.707 32.5486 120.804 32.5917 120.804 32.6777C120.825 32.7423 120.815 32.7961 120.772 32.8391C120.686 32.9252 120.503 33.1189 120.223 33.4202C119.965 33.7215 119.663 34.055 119.319 34.4209C118.996 34.7652 118.695 35.0988 118.415 35.4216C118.135 35.7228 117.931 35.9488 117.802 36.0994C117.135 36.8957 116.468 37.7673 115.8 38.7141C115.155 39.661 114.703 40.5111 114.445 41.2643C114.359 41.458 114.316 41.6409 114.316 41.813C114.316 42.1143 114.455 42.265 114.735 42.265C115.036 42.265 115.413 42.0928 115.865 41.7485C116.317 41.3826 116.769 40.963 117.221 40.4896C117.694 40.0161 118.071 39.618 118.351 39.2952C118.437 39.2952 118.48 39.3598 118.48 39.4889C118.48 39.6826 118.437 39.8332 118.351 39.9408C117.361 41.1029 116.554 41.8991 115.93 42.3295C115.327 42.7384 114.767 42.9429 114.251 42.9429ZM120.548 42.9106C119.752 42.9106 119.354 42.4587 119.354 41.5548C119.354 41.0383 119.504 40.425 119.805 39.7148C120.107 38.9831 120.559 38.2192 121.161 37.4229C121.592 36.8849 122.119 36.3146 122.743 35.7121C123.367 35.088 124.045 34.4962 124.777 33.9367C125.53 33.3771 126.294 32.9252 127.069 32.5809C127.843 32.2151 128.596 32.0321 129.328 32.0321C129.651 32.0321 129.877 32.0859 130.006 32.1935C130.135 32.2796 130.221 32.3765 130.264 32.4841C130.307 32.5701 130.307 32.6347 130.264 32.6777C130.243 32.7208 130.21 32.7315 130.167 32.71C130.081 32.667 129.909 32.6455 129.651 32.6455C128.876 32.6455 127.951 33.0221 126.875 33.7753C125.82 34.507 124.777 35.4646 123.744 36.6482C123.012 37.466 122.409 38.273 121.936 39.0692C121.463 39.844 121.15 40.4896 121 41.006C120.957 41.1782 120.935 41.3288 120.935 41.458C120.935 41.7592 121.054 41.9099 121.29 41.9099C121.441 41.9099 121.645 41.8453 121.904 41.7162C122.162 41.5656 122.495 41.3181 122.904 40.9738C123.55 40.4142 124.185 39.7579 124.809 39.0047C125.454 38.2515 126.089 37.4875 126.713 36.7128C127.338 35.9165 127.94 35.1848 128.521 34.5177C129.124 33.8506 129.694 33.3449 130.232 33.0005C130.921 32.5486 131.394 32.2904 131.652 32.2258C131.932 32.1613 132.158 32.1182 132.33 32.0967C132.223 32.2258 131.986 32.5271 131.62 33.0005C131.254 33.474 130.867 33.9797 130.458 34.5177C130.049 35.0342 129.715 35.4646 129.457 35.8089C129.07 36.3684 128.65 36.971 128.198 37.6166C127.768 38.2622 127.37 38.8755 127.004 39.4566C126.66 40.0161 126.423 40.4788 126.294 40.8446C126.186 41.2105 126.132 41.4795 126.132 41.6516C126.132 41.996 126.272 42.1681 126.552 42.1681C126.746 42.1681 126.972 42.0928 127.23 41.9422C127.51 41.77 127.789 41.5763 128.069 41.3611C128.435 41.0598 128.779 40.7478 129.102 40.425C129.425 40.0807 129.759 39.7041 130.103 39.2952C130.189 39.2952 130.232 39.3598 130.232 39.4889C130.232 39.6826 130.189 39.8332 130.103 39.9408C129.823 40.2636 129.479 40.6187 129.07 41.006C128.683 41.3934 128.295 41.7377 127.908 42.039C127.628 42.2757 127.305 42.4802 126.939 42.6523C126.574 42.8245 126.218 42.9106 125.874 42.9106C125.379 42.9106 125.035 42.7922 124.841 42.5555C124.647 42.3188 124.551 42.0175 124.551 41.6516C124.551 41.2212 124.647 40.7586 124.841 40.2636C125.035 39.7471 125.25 39.2629 125.487 38.811C125.207 39.1553 124.852 39.575 124.422 40.0699C123.991 40.5434 123.604 40.9415 123.259 41.2643C122.786 41.6947 122.334 42.0821 121.904 42.4264C121.473 42.7492 121.021 42.9106 120.548 42.9106Z" fill="white"/>
</g>
<defs>
<filter id="filter0_d_738_4578" x="50.3631" y="24.0912" width="82.9758" height="28.6164" filterUnits="userSpaceOnUse" color-interpolation-filters="sRGB">
<feFlood flood-opacity="0" result="BackgroundImageFix"/>
<feColorMatrix in="SourceAlpha" type="matrix" values="0 0 0 0 0 0 0 0 0 0 0 0 0 0 0 0 0 0 127 0" result="hardAlpha"/>
<feOffset dy="1.00876"/>
<feGaussianBlur stdDeviation="0.504379"/>
<feComposite in2="hardAlpha" operator="out"/>
<feColorMatrix type="matrix" values="0 0 0 0 0 0 0 0 0 0 0 0 0 0 0 0 0 0 0.25 0"/>
<feBlend mode="normal" in2="BackgroundImageFix" result="effect1_dropShadow_738_4578"/>
<feBlend mode="normal" in="SourceGraphic" in2="effect1_dropShadow_738_4578" result="shape"/>
</filter>
</defs>
</svg>
