<svg width="254" height="38" viewBox="0 0 254 38" fill="none" xmlns="http://www.w3.org/2000/svg">
<path d="M2.41036 25.8953V12.0652H8.17946C9.66783 12.0652 10.8335 12.3682 11.6765 12.9741C12.5195 13.58 12.9409 14.4559 12.9409 15.6018C12.9409 16.3525 12.7631 16.9848 12.4075 17.4985C12.0519 18.0121 11.5579 18.4007 10.9257 18.6641C10.3066 18.9144 9.60856 19.0395 8.83145 19.0395L9.18707 18.6444C10.1354 18.6444 10.9455 18.7827 11.6172 19.0593C12.289 19.3359 12.7961 19.7376 13.1385 20.2645C13.4941 20.7913 13.672 21.4499 13.672 22.2402C13.672 23.3993 13.2505 24.3015 12.4075 24.9469C11.5645 25.5791 10.2869 25.8953 8.5746 25.8953H2.41036ZM3.41798 25.0259H8.5746C9.90492 25.0259 10.9191 24.802 11.6172 24.3542C12.3153 23.8932 12.6643 23.1622 12.6643 22.1612C12.6643 21.1733 12.3153 20.4555 11.6172 20.0076C10.9191 19.5466 9.90492 19.3161 8.5746 19.3161H3.29943V18.4468H8.13994C9.33855 18.4468 10.2671 18.2163 10.9257 17.7553C11.5843 17.2943 11.9136 16.6028 11.9136 15.6808C11.9136 14.772 11.5843 14.0871 10.9257 13.6261C10.2671 13.1651 9.33855 12.9346 8.13994 12.9346H3.41798V25.0259ZM22.6803 25.994C20.968 25.994 19.6179 25.4935 18.6301 24.4925C17.6422 23.4915 17.1483 22.0031 17.1483 20.0274V12.0652H18.1559V19.9879C18.1559 21.7133 18.5511 22.991 19.3413 23.8208C20.1316 24.6506 21.2512 25.0655 22.7001 25.0655C24.1357 25.0655 25.2487 24.6506 26.039 23.8208C26.8293 22.991 27.2245 21.7133 27.2245 19.9879V12.0652H28.2321V20.0274C28.2321 22.0031 27.7381 23.4915 26.7503 24.4925C25.7624 25.4935 24.4058 25.994 22.6803 25.994ZM33.8227 18.427H41.3107V19.3161H33.8227V18.427ZM33.9413 24.9864H42.4764V25.8953H32.9337V12.0652H42.18V12.9741H33.9413V24.9864ZM46.1501 25.8953V12.0652H46.9997L56.8585 24.6506H56.4041V12.0652H57.4117V25.8953H56.5819L46.7033 13.3099H47.1578V25.8953H46.1501ZM68.1093 25.994C67.0819 25.994 66.127 25.8228 65.2445 25.4804C64.3752 25.1247 63.6113 24.6308 62.9527 23.9986C62.3073 23.3532 61.8068 22.609 61.4511 21.766C61.0955 20.9099 60.9177 19.9813 60.9177 18.9802C60.9177 17.9792 61.0955 17.0572 61.4511 16.2142C61.8068 15.3581 62.3073 14.6139 62.9527 13.9817C63.6113 13.3363 64.3752 12.8424 65.2445 12.4999C66.127 12.1443 67.0819 11.9665 68.1093 11.9665C69.1367 11.9665 70.085 12.1443 70.9543 12.4999C71.8368 12.8424 72.6008 13.3297 73.2462 13.9619C73.8916 14.5942 74.3921 15.3383 74.7477 16.1945C75.1165 17.0375 75.3009 17.966 75.3009 18.9802C75.3009 19.9945 75.1165 20.9296 74.7477 21.7858C74.3921 22.6287 73.8916 23.3663 73.2462 23.9986C72.6008 24.6308 71.8368 25.1247 70.9543 25.4804C70.085 25.8228 69.1367 25.994 68.1093 25.994ZM68.1093 25.0655C68.9918 25.0655 69.8084 24.914 70.5592 24.611C71.31 24.3081 71.962 23.88 72.5152 23.3268C73.0684 22.7736 73.4964 22.1282 73.7994 21.3906C74.1155 20.653 74.2736 19.8496 74.2736 18.9802C74.2736 18.0978 74.1155 17.2943 73.7994 16.5699C73.4964 15.8323 73.0684 15.1869 72.5152 14.6337C71.962 14.0805 71.31 13.6524 70.5592 13.3495C69.8084 13.0465 68.9918 12.895 68.1093 12.895C67.2268 12.895 66.4102 13.0465 65.6594 13.3495C64.9087 13.6524 64.2501 14.0805 63.6837 14.6337C63.1305 15.1869 62.6958 15.8323 62.3797 16.5699C62.0768 17.2943 61.9253 18.0978 61.9253 18.9802C61.9253 19.8496 62.0768 20.653 62.3797 21.3906C62.6958 22.1282 63.1305 22.7736 63.6837 23.3268C64.2501 23.88 64.9087 24.3081 65.6594 24.611C66.4102 24.914 67.2268 25.0655 68.1093 25.0655ZM82.4311 25.994C81.4037 25.994 80.4291 25.8228 79.507 25.4804C78.5982 25.1247 77.8935 24.6703 77.393 24.1171L77.8474 23.3663C78.3216 23.8537 78.967 24.2686 79.7836 24.611C80.6135 24.9403 81.4894 25.105 82.4114 25.105C83.3334 25.105 84.0841 24.9864 84.6637 24.7493C85.2564 24.4991 85.691 24.1698 85.9676 23.7615C86.2574 23.3532 86.4023 22.8988 86.4023 22.3982C86.4023 21.8055 86.2442 21.3314 85.9281 20.9757C85.612 20.6201 85.1971 20.3369 84.6834 20.1262C84.1697 19.9154 83.61 19.7376 83.0041 19.5927C82.3982 19.4478 81.7857 19.2964 81.1667 19.1383C80.5476 18.9671 79.9812 18.7497 79.4675 18.4863C78.9538 18.2229 78.5389 17.8673 78.2228 17.4194C77.9199 16.9584 77.7684 16.3657 77.7684 15.6413C77.7684 14.9827 77.9396 14.3768 78.2821 13.8236C78.6246 13.2704 79.158 12.8226 79.8824 12.4801C80.6069 12.1377 81.5355 11.9665 82.6682 11.9665C83.4321 11.9665 84.1829 12.0784 84.9205 12.3023C85.6713 12.5262 86.3101 12.8292 86.837 13.2112L86.4616 14.0212C85.882 13.6261 85.2564 13.3363 84.5846 13.1519C83.9261 12.9543 83.2873 12.8555 82.6682 12.8555C81.7857 12.8555 81.0547 12.9807 80.4752 13.2309C79.8956 13.4812 79.4675 13.817 79.1909 14.2385C78.9143 14.6468 78.776 15.1078 78.776 15.6215C78.776 16.2142 78.9275 16.6884 79.2304 17.044C79.5466 17.3997 79.9615 17.6829 80.4752 17.8936C80.9888 18.1043 81.5552 18.2822 82.1743 18.427C82.7933 18.5719 83.4058 18.73 84.0117 18.9012C84.6176 19.0593 85.1774 19.27 85.691 19.5335C86.2047 19.7969 86.6196 20.1525 86.9357 20.6003C87.2519 21.0482 87.4099 21.6277 87.4099 22.339C87.4099 22.9844 87.2321 23.5903 86.8765 24.1566C86.5208 24.7098 85.9742 25.1577 85.2366 25.5001C84.5122 25.8294 83.577 25.994 82.4311 25.994ZM98.6724 25.8953L105.034 12.0652H106.042L112.404 25.8953H111.317L105.311 12.6975H105.746L99.7591 25.8953H98.6724ZM101.004 22.0031L101.34 21.1535H109.618L109.954 22.0031H101.004ZM114.914 25.8953V12.0652H115.922V25.8953H114.914ZM120.741 25.8953V12.0652H125.7C126.859 12.0652 127.854 12.2496 128.684 12.6184C129.513 12.9872 130.152 13.5207 130.6 14.2188C131.048 14.9037 131.272 15.7401 131.272 16.7279C131.272 17.6894 131.048 18.5192 130.6 19.2173C130.152 19.9023 129.513 20.4357 128.684 20.8177C127.854 21.1865 126.859 21.3709 125.7 21.3709H121.294L121.749 20.8967V25.8953H120.741ZM130.343 25.8953L126.747 20.8769H127.893L131.489 25.8953H130.343ZM121.749 20.956L121.294 20.4818H125.7C127.189 20.4818 128.315 20.1525 129.079 19.4939C129.856 18.8354 130.244 17.9134 130.244 16.7279C130.244 15.5293 129.856 14.6073 129.079 13.9619C128.315 13.3034 127.189 12.9741 125.7 12.9741H121.294L121.749 12.4801V20.956ZM135.85 18.427H143.338V19.3161H135.85V18.427ZM135.969 24.9864H144.504V25.8953H134.961V12.0652H144.207V12.9741H135.969V24.9864ZM151.813 25.994C150.785 25.994 149.811 25.8228 148.889 25.4804C147.98 25.1247 147.275 24.6703 146.775 24.1171L147.229 23.3663C147.703 23.8537 148.349 24.2686 149.165 24.611C149.995 24.9403 150.871 25.105 151.793 25.105C152.715 25.105 153.466 24.9864 154.045 24.7493C154.638 24.4991 155.073 24.1698 155.349 23.7615C155.639 23.3532 155.784 22.8988 155.784 22.3982C155.784 21.8055 155.626 21.3314 155.31 20.9757C154.994 20.6201 154.579 20.3369 154.065 20.1262C153.551 19.9154 152.992 19.7376 152.386 19.5927C151.78 19.4478 151.167 19.2964 150.548 19.1383C149.929 18.9671 149.363 18.7497 148.849 18.4863C148.336 18.2229 147.921 17.8673 147.604 17.4194C147.302 16.9584 147.15 16.3657 147.15 15.6413C147.15 14.9827 147.321 14.3768 147.664 13.8236C148.006 13.2704 148.54 12.8226 149.264 12.4801C149.989 12.1377 150.917 11.9665 152.05 11.9665C152.814 11.9665 153.565 12.0784 154.302 12.3023C155.053 12.5262 155.692 12.8292 156.219 13.2112L155.843 14.0212C155.264 13.6261 154.638 13.3363 153.966 13.1519C153.308 12.9543 152.669 12.8555 152.05 12.8555C151.167 12.8555 150.436 12.9807 149.857 13.2309C149.277 13.4812 148.849 13.817 148.573 14.2385C148.296 14.6468 148.158 15.1078 148.158 15.6215C148.158 16.2142 148.309 16.6884 148.612 17.044C148.928 17.3997 149.343 17.6829 149.857 17.8936C150.37 18.1043 150.937 18.2822 151.556 18.427C152.175 18.5719 152.787 18.73 153.393 18.9012C153.999 19.0593 154.559 19.27 155.073 19.5335C155.586 19.7969 156.001 20.1525 156.317 20.6003C156.634 21.0482 156.792 21.6277 156.792 22.339C156.792 22.9844 156.614 23.5903 156.258 24.1566C155.903 24.7098 155.356 25.1577 154.618 25.5001C153.894 25.8294 152.959 25.994 151.813 25.994Z" fill="#3E77C8"/>
<path d="M174.827 28.4498C173.545 28.4498 172.568 28.1451 171.895 27.5357C171.244 26.9473 170.918 26.1278 170.918 25.077C170.918 24.7828 170.95 24.4676 171.013 24.1314C171.16 23.2068 171.538 22.3347 172.147 21.5151C172.757 20.6745 173.503 19.918 174.385 19.2456C175.289 18.5731 176.235 18.0372 177.222 17.638C178.231 17.2387 179.187 17.0286 180.091 17.0075C180.07 16.9025 180.049 16.7869 180.028 16.6608C180.028 16.5347 180.028 16.4191 180.028 16.3141C178.788 16.209 177.643 15.9673 176.592 15.5891C175.562 15.2108 174.732 14.717 174.102 14.1076C173.492 13.4771 173.188 12.7311 173.188 11.8696C173.188 11.4493 173.261 11.05 173.408 10.6717C173.703 9.87319 174.175 9.33733 174.827 9.06415C175.499 8.79096 176.161 8.65437 176.813 8.65437C176.918 8.65437 177.023 8.65437 177.128 8.65437C177.254 8.65437 177.37 8.66487 177.475 8.68589C177.958 8.72792 178.483 8.88552 179.051 9.15871C179.639 9.41088 180.143 9.78914 180.564 10.2935C180.69 10.4406 180.753 10.5457 180.753 10.6087C180.753 10.6507 180.732 10.6717 180.69 10.6717C180.648 10.6717 180.543 10.6087 180.375 10.4826C179.639 9.70508 178.798 9.28479 177.853 9.22175C177.769 9.20074 177.674 9.19023 177.569 9.19023C177.464 9.19023 177.348 9.19023 177.222 9.19023C176.739 9.19023 176.224 9.30581 175.678 9.53697C175.131 9.74711 174.732 10.1884 174.48 10.8609C174.396 11.071 174.333 11.2812 174.291 11.4913C174.249 11.7014 174.228 11.9011 174.228 12.0902C174.228 12.8047 174.491 13.4246 175.016 13.95C175.541 14.4753 176.245 14.8956 177.128 15.2108C178.01 15.526 178.977 15.7362 180.028 15.8413C180.091 14.9797 180.354 14.1391 180.816 13.3195C181.299 12.479 181.919 11.7225 182.676 11.05C183.453 10.3565 184.315 9.81015 185.26 9.41088C186.227 8.9906 187.225 8.78045 188.255 8.78045C188.36 8.78045 188.476 8.78045 188.602 8.78045C188.728 8.78045 188.854 8.79096 188.98 8.81197C189.652 8.87502 190.23 9.06415 190.714 9.37936C191.218 9.67356 191.47 10.1149 191.47 10.7033C191.47 10.8714 191.439 11.071 191.376 11.3022C191.102 12.1848 190.598 12.9518 189.863 13.6032C189.127 14.2337 188.255 14.7485 187.246 15.1478C186.259 15.5471 185.229 15.8518 184.157 16.0619C183.085 16.251 182.087 16.3456 181.163 16.3456H180.784L180.627 16.976C181.446 16.934 182.129 17.0706 182.676 17.3858C182.844 17.4909 182.928 17.6065 182.928 17.7325C182.823 17.9637 182.518 18.0793 182.014 18.0793C181.425 18.0793 180.973 17.9847 180.658 17.7956C180.364 17.6065 180.185 17.3753 180.122 17.1021C179.282 17.2282 178.441 17.5329 177.601 18.0162C176.781 18.4996 176.025 19.0985 175.331 19.813C174.638 20.5274 174.049 21.305 173.566 22.1455C173.104 22.9861 172.809 23.8267 172.683 24.6673C172.662 24.8564 172.631 25.0455 172.589 25.2346C172.568 25.4238 172.557 25.6024 172.557 25.7705C172.557 26.4009 172.746 26.9053 173.125 27.2835C173.503 27.6828 174.207 27.8824 175.237 27.8824C176.161 27.8824 177.107 27.6513 178.073 27.189C179.061 26.7267 179.975 26.1278 180.816 25.3923C181.677 24.6357 182.402 23.8267 182.991 22.9651C183.579 22.1035 183.936 21.284 184.063 20.5064C184.063 20.4644 184.063 20.4224 184.063 20.3803C184.084 20.3173 184.094 20.2753 184.094 20.2543C184.094 19.9811 184.01 19.7604 183.842 19.5923C183.674 19.4032 183.401 19.3086 183.022 19.3086C182.938 19.3086 182.854 19.3191 182.77 19.3401C182.686 19.3401 182.592 19.3506 182.486 19.3717C181.898 19.4767 181.226 19.7814 180.469 20.2858C179.713 20.7901 178.998 21.4206 178.326 22.1771C177.674 22.9126 177.18 23.7006 176.844 24.5412C176.76 24.5832 176.708 24.6042 176.687 24.6042C176.581 24.6042 176.56 24.4676 176.624 24.1944C176.834 23.6271 177.17 23.0281 177.632 22.3977C178.116 21.7463 178.672 21.1474 179.303 20.601C179.954 20.0336 180.658 19.5713 181.415 19.2141C182.171 18.8568 182.938 18.6782 183.716 18.6782C184.325 18.6782 184.767 18.8148 185.04 19.088C185.313 19.3401 185.45 19.6764 185.45 20.0967C185.45 20.7271 185.197 21.4206 184.693 22.1771C184.294 22.8075 183.726 23.48 182.991 24.1944C182.276 24.9089 181.467 25.5919 180.564 26.2433C179.66 26.8948 178.714 27.4201 177.727 27.8194C176.739 28.2397 175.772 28.4498 174.827 28.4498ZM180.973 15.9043H181.194C182.266 15.9043 183.317 15.7887 184.346 15.5576C185.397 15.3264 186.364 15.0007 187.246 14.5804C188.129 14.1601 188.864 13.6558 189.453 13.0674C190.062 12.479 190.451 11.8275 190.619 11.113C190.64 11.029 190.651 10.9134 190.651 10.7663C190.651 10.4511 190.514 10.1779 190.241 9.94675C189.968 9.71559 189.432 9.60001 188.633 9.60001C187.961 9.60001 187.173 9.81015 186.269 10.2304C185.365 10.6507 184.451 11.2917 183.527 12.1532C182.938 12.6996 182.423 13.3195 181.982 14.013C181.541 14.6855 181.205 15.3159 180.973 15.9043ZM186.609 27.5042C186.357 27.5042 186.158 27.4306 186.01 27.2835C185.842 27.1364 185.758 26.9683 185.758 26.7792C185.758 26.548 185.853 26.3589 186.042 26.2118C186.147 26.3169 186.347 26.3694 186.641 26.3694C186.914 26.3694 187.208 26.3274 187.524 26.2433C187.839 26.1383 188.112 26.0122 188.343 25.8651C189.037 25.3607 189.73 24.6673 190.423 23.7847C191.138 22.881 191.737 22.0195 192.22 21.1999C192.598 20.4014 192.903 19.7394 193.134 19.2141C193.387 18.6677 193.513 18.2579 193.513 17.9847C193.513 17.7956 193.439 17.6695 193.292 17.6065C193.166 17.5644 193.071 17.5434 193.008 17.5434C192.693 17.5434 192.346 17.701 191.968 18.0162C191.59 18.3104 191.191 18.6992 190.77 19.1825C190.371 19.6659 189.982 20.1597 189.604 20.664L186.925 24.1944C186.609 24.5307 186.242 24.9194 185.821 25.3607C185.401 25.802 184.949 26.1908 184.466 26.527C183.962 26.8422 183.436 26.9998 182.89 26.9998C182.848 26.9998 182.827 26.9893 182.827 26.9683C182.827 26.9683 182.858 26.9473 182.921 26.9053C182.984 26.8633 183.079 26.8107 183.205 26.7477C183.941 26.3904 184.613 25.9281 185.222 25.3607C185.832 24.7933 186.399 24.1734 186.925 23.501C187.912 22.2401 188.826 21.0213 189.667 19.8445C190.508 18.6677 191.38 17.743 192.283 17.0706C192.809 16.6923 193.344 16.5032 193.891 16.5032C194.227 16.5032 194.511 16.5978 194.742 16.7869C194.973 16.955 195.089 17.2387 195.089 17.638C195.089 18.1003 194.91 18.6782 194.553 19.3717C194.49 19.4557 194.427 19.5608 194.364 19.6869C194.322 19.7919 194.269 19.897 194.206 20.0021C194.668 19.4977 195.204 18.9619 195.814 18.3945C196.444 17.8061 197.075 17.3017 197.705 16.8815C198.335 16.4612 198.882 16.251 199.344 16.251C199.575 16.251 199.743 16.3246 199.848 16.4717C199.974 16.5978 200.038 16.7449 200.038 16.913C200.038 17.0391 200.006 17.1652 199.943 17.2912C199.88 17.4173 199.764 17.5119 199.596 17.5749C199.449 17.4278 199.249 17.3543 198.997 17.3543C198.787 17.3543 198.546 17.4068 198.272 17.5119C198.02 17.5959 197.757 17.701 197.484 17.8271C196.77 18.2054 196.055 18.7517 195.341 19.4662C194.647 20.1597 194.027 20.8742 193.481 21.6097C193.208 22.2611 192.956 22.9231 192.725 23.5955C192.514 24.268 192.409 24.8669 192.409 25.3923C192.409 26.0437 192.683 26.3694 193.229 26.3694C193.523 26.3694 193.87 26.2643 194.269 26.0542C194.794 25.76 195.278 25.3817 195.719 24.9194C196.181 24.4571 196.623 23.9843 197.043 23.501C197.127 23.501 197.169 23.564 197.169 23.6901C197.169 23.8792 197.127 24.0263 197.043 24.1314C196.118 25.2031 195.32 25.9596 194.647 26.4009C193.996 26.8212 193.292 27.0314 192.535 27.0314C192.199 27.0314 191.842 26.8948 191.464 26.6216C191.106 26.3484 190.928 25.8651 190.928 25.1716C190.928 24.9404 190.949 24.6988 190.991 24.4466C191.033 24.1944 191.106 23.9107 191.212 23.5955C190.749 24.247 190.224 24.8984 189.635 25.5499C189.068 26.1803 188.522 26.6741 187.996 27.0314C187.534 27.3466 187.072 27.5042 186.609 27.5042ZM189.897 34.628C189.329 34.628 188.857 34.565 188.478 34.4389C188.31 34.3549 188.142 34.2393 187.974 34.0922C187.785 33.9451 187.659 33.7559 187.596 33.5248C187.827 33.7139 188.09 33.8505 188.384 33.9346C188.678 34.0396 189.035 34.0817 189.455 34.0607C190.674 34.0607 191.82 33.7244 192.891 33.052C193.942 32.3795 194.93 31.4969 195.854 30.4042C196.779 29.3324 197.641 28.1872 198.439 26.9683C199.721 25.056 200.94 23.1227 202.096 21.1684C203.251 19.193 204.46 17.2912 205.721 15.463C206.015 15.484 206.162 15.6942 206.162 16.0934C206.162 16.6188 205.899 17.4173 205.374 18.4891C204.848 19.5398 204.123 20.7796 203.199 22.2086C203.115 22.3137 203.041 22.4292 202.978 22.5553C202.915 22.6814 202.842 22.8075 202.757 22.9336C203.388 22.1981 204.039 21.4521 204.712 20.6956C205.405 19.918 206.088 19.2141 206.761 18.5836C207.433 17.9322 208.085 17.4068 208.715 17.0075C209.345 16.6083 209.923 16.4086 210.449 16.4086C211.121 16.4086 211.457 16.8184 211.457 17.638C211.457 18.1423 211.3 18.7728 210.985 19.5293C210.669 20.2858 210.186 21.0843 209.535 21.9249C209.135 22.4503 208.631 23.0176 208.022 23.6271C207.433 24.2155 206.782 24.7828 206.067 25.3292C205.374 25.8546 204.659 26.2854 203.924 26.6216C203.188 26.9578 202.474 27.1259 201.78 27.1259C201.213 27.1259 200.877 27.0209 200.772 26.8107C200.73 26.7477 200.719 26.6951 200.74 26.6531C200.782 26.6111 200.814 26.5901 200.835 26.5901C200.835 26.5901 200.887 26.6006 200.992 26.6216C201.097 26.6426 201.223 26.6531 201.371 26.6531C201.875 26.6531 202.453 26.4745 203.104 26.1172C203.756 25.76 204.439 25.2767 205.153 24.6673C205.889 24.0578 206.582 23.3749 207.234 22.6184C207.948 21.8198 208.547 21.0318 209.03 20.2543C209.514 19.4557 209.829 18.8043 209.976 18.2999C210.018 18.1318 210.039 17.9952 210.039 17.8901C210.039 17.722 209.997 17.5854 209.913 17.4804C209.85 17.3543 209.713 17.3123 209.503 17.3543C208.978 17.4804 208.347 17.8481 207.612 18.4575C206.876 19.067 206.109 19.7919 205.311 20.6325C204.512 21.4731 203.745 22.3242 203.01 23.1858C202.295 24.0263 201.665 24.7618 201.118 25.3923C200.341 26.5691 199.458 27.7774 198.471 29.0172C197.462 30.2781 196.39 31.3918 195.255 32.3585C194.1 33.3462 192.891 34.0291 191.63 34.4074C191.231 34.5545 190.653 34.628 189.897 34.628ZM212.969 27.0944C211.918 27.0944 211.393 26.6111 211.393 25.6444C211.393 25.3292 211.466 24.9615 211.614 24.5412C211.761 24.1209 212.034 23.564 212.433 22.8705C212.979 21.9249 213.746 20.8111 214.734 19.5293C215.743 18.2474 216.815 16.997 217.949 15.7782C218.937 14.6645 220.009 13.6453 221.165 12.7206C222.341 11.775 223.56 11.1235 224.821 10.7663C225.01 10.7033 225.231 10.6507 225.483 10.6087C225.735 10.5667 225.998 10.5457 226.271 10.5457C226.775 10.5457 227.206 10.6192 227.563 10.7663C227.732 10.8504 227.9 10.9659 228.068 11.113C228.236 11.2391 228.351 11.4283 228.414 11.6804C228.183 11.4913 227.921 11.3547 227.626 11.2706C227.332 11.1656 226.975 11.113 226.555 11.113C225.462 11.113 224.411 11.4703 223.403 12.1848C222.394 12.8993 221.385 13.8239 220.377 14.9587C219.389 16.0724 218.349 17.2597 217.256 18.5206C216.836 19.0039 216.373 19.6028 215.869 20.3173C215.365 21.0318 214.881 21.7463 214.419 22.4608C213.978 23.1752 213.62 23.7847 213.347 24.289C213.2 24.5202 213.085 24.7723 213 25.0455C212.937 25.2977 212.906 25.5078 212.906 25.6759C212.906 26.1803 213.095 26.4325 213.473 26.4325C213.873 26.4325 214.314 26.2433 214.797 25.8651C215.302 25.4868 215.774 25.0665 216.216 24.6042C216.678 24.1419 217.025 23.7742 217.256 23.501C217.34 23.501 217.382 23.564 217.382 23.6901C217.382 23.8792 217.34 24.0263 217.256 24.1314C216.415 25.0981 215.638 25.8336 214.923 26.3379C214.23 26.8422 213.578 27.0944 212.969 27.0944ZM220.063 27.1575C219.454 27.1575 219.023 27.0104 218.771 26.7162C218.498 26.4009 218.361 26.0122 218.361 25.5499C218.361 24.9615 218.529 24.268 218.865 23.4694C219.223 22.6709 219.696 21.8619 220.284 21.0423C220.872 20.2227 221.534 19.4662 222.27 18.7728C223.005 18.0583 223.751 17.4909 224.508 17.0706C225.285 16.6293 226.031 16.4086 226.746 16.4086C227.271 16.4086 227.649 16.5452 227.881 16.8184C228.112 17.0916 228.227 17.4488 228.227 17.8901C228.227 18.4786 228.059 19.1825 227.723 20.0021C227.387 20.8006 226.924 21.6202 226.336 22.4608C225.769 23.2803 225.128 24.0473 224.413 24.7618C223.72 25.4763 222.995 26.0542 222.238 26.4955C221.482 26.9368 220.757 27.1575 220.063 27.1575ZM220.442 26.5585C220.883 26.5585 221.408 26.3379 222.018 25.8966C222.648 25.4343 223.289 24.8459 223.94 24.1314C224.592 23.4169 225.191 22.6604 225.737 21.8619C226.305 21.0423 226.756 20.2753 227.093 19.5608C227.45 18.8253 227.628 18.2264 227.628 17.7641C227.628 17.2597 227.387 17.0075 226.903 17.0075C226.504 17.0075 226 17.2492 225.39 17.7325C224.802 18.1949 224.182 18.7938 223.531 19.5293C222.9 20.2648 222.301 21.0423 221.734 21.8619C221.167 22.6814 220.704 23.4589 220.347 24.1944C220.011 24.9299 219.843 25.5078 219.843 25.9281C219.843 26.3484 220.042 26.5585 220.442 26.5585ZM232.319 27.0629C231.794 27.0629 231.416 26.9263 231.184 26.6531C230.974 26.3799 230.869 26.0437 230.869 25.6444C230.869 25.3923 230.901 25.1401 230.964 24.8879C231.09 24.2575 231.405 23.5955 231.909 22.9021C232.414 22.2086 233.013 21.5151 233.706 20.8216C234.4 20.1282 235.104 19.4977 235.818 18.9304C236.554 18.363 237.205 17.8901 237.772 17.5119C237.52 17.5539 237.195 17.5749 236.795 17.5749C236.333 17.5749 235.85 17.5539 235.345 17.5119C234.841 17.4488 234.494 17.3543 234.305 17.2282C234.221 17.3753 234.011 17.659 233.675 18.0793C233.359 18.4786 232.96 18.9619 232.477 19.5293C232.014 20.0967 231.531 20.6745 231.027 21.2629C230.522 21.8513 230.05 22.4082 229.608 22.9336C229.167 23.4379 228.81 23.8372 228.537 24.1314C228.263 24.4466 227.896 24.8249 227.433 25.2662C226.95 25.6865 226.477 26.0647 226.015 26.4009C225.532 26.7372 225.132 26.9053 224.817 26.9053C224.67 26.9053 224.586 26.8738 224.565 26.8107C224.523 26.7477 224.502 26.7056 224.502 26.6846C224.838 26.6846 225.342 26.4535 226.015 25.9912C226.666 25.5078 227.507 24.6778 228.537 23.501C229.776 22.072 230.943 20.538 232.035 18.8988C233.149 17.2387 234.147 15.5155 235.03 13.7293H235.062C235.335 13.7293 235.471 13.992 235.471 14.5174C235.471 15.0007 235.303 15.5681 234.967 16.2195C234.883 16.3666 234.757 16.5662 234.589 16.8184C235.009 16.9025 235.429 16.9655 235.85 17.0075C236.27 17.0286 236.659 17.0391 237.016 17.0391C237.31 17.0391 237.583 17.0286 237.835 17.0075C238.088 16.9865 238.287 16.955 238.434 16.913C238.623 16.913 238.718 16.955 238.718 17.0391C238.739 17.1021 238.729 17.1546 238.687 17.1967C238.602 17.2807 238.424 17.4699 238.151 17.7641C237.898 18.0583 237.604 18.384 237.268 18.7412C236.953 19.0775 236.659 19.4032 236.385 19.7184C236.112 20.0126 235.913 20.2332 235.787 20.3803C235.135 21.1579 234.484 22.009 233.832 22.9336C233.202 23.8582 232.76 24.6883 232.508 25.4238C232.424 25.6129 232.382 25.7915 232.382 25.9596C232.382 26.2538 232.519 26.4009 232.792 26.4009C233.086 26.4009 233.454 26.2328 233.895 25.8966C234.337 25.5394 234.778 25.1296 235.219 24.6673C235.681 24.2049 236.049 23.8162 236.322 23.501C236.406 23.501 236.448 23.564 236.448 23.6901C236.448 23.8792 236.406 24.0263 236.322 24.1314C235.356 25.2662 234.568 26.0437 233.958 26.464C233.37 26.8633 232.824 27.0629 232.319 27.0629ZM238.468 27.0314C237.691 27.0314 237.302 26.5901 237.302 25.7075C237.302 25.2031 237.449 24.6042 237.743 23.9107C238.037 23.1963 238.479 22.4503 239.067 21.6727C239.487 21.1474 240.002 20.5905 240.612 20.0021C241.221 19.3927 241.883 18.8148 242.597 18.2684C243.333 17.722 244.079 17.2807 244.835 16.9445C245.592 16.5873 246.327 16.4086 247.042 16.4086C247.357 16.4086 247.578 16.4612 247.704 16.5662C247.83 16.6503 247.914 16.7449 247.956 16.8499C247.998 16.934 247.998 16.997 247.956 17.0391C247.935 17.0811 247.904 17.0916 247.861 17.0706C247.777 17.0286 247.609 17.0075 247.357 17.0075C246.601 17.0075 245.697 17.3753 244.646 18.1108C243.617 18.8253 242.597 19.7604 241.589 20.9162C240.874 21.7148 240.286 22.5028 239.824 23.2803C239.361 24.0368 239.056 24.6673 238.909 25.1716C238.867 25.3397 238.846 25.4868 238.846 25.6129C238.846 25.9071 238.962 26.0542 239.193 26.0542C239.34 26.0542 239.54 25.9912 239.792 25.8651C240.044 25.718 240.37 25.4763 240.769 25.1401C241.4 24.5937 242.019 23.9528 242.629 23.2173C243.259 22.4818 243.879 21.7358 244.489 20.9793C245.098 20.2017 245.686 19.4872 246.254 18.8358C246.842 18.1843 247.399 17.6905 247.925 17.3543C248.597 16.913 249.059 16.6608 249.311 16.5978C249.585 16.5347 249.805 16.4927 249.973 16.4717C249.868 16.5978 249.637 16.892 249.28 17.3543C248.923 17.8166 248.544 18.3104 248.145 18.8358C247.746 19.3401 247.42 19.7604 247.168 20.0967C246.79 20.643 246.38 21.2314 245.939 21.8619C245.518 22.4923 245.13 23.0912 244.772 23.6586C244.436 24.2049 244.205 24.6568 244.079 25.014C243.974 25.3712 243.921 25.6339 243.921 25.802C243.921 26.1383 244.058 26.3064 244.331 26.3064C244.52 26.3064 244.741 26.2328 244.993 26.0857C245.266 25.9176 245.539 25.7285 245.813 25.5183C246.17 25.2241 246.506 24.9194 246.821 24.6042C247.136 24.268 247.462 23.9002 247.798 23.501C247.882 23.501 247.925 23.564 247.925 23.6901C247.925 23.8792 247.882 24.0263 247.798 24.1314C247.525 24.4466 247.189 24.7933 246.79 25.1716C246.411 25.5499 246.033 25.8861 245.655 26.1803C245.382 26.4114 245.067 26.6111 244.709 26.7792C244.352 26.9473 244.005 27.0314 243.669 27.0314C243.186 27.0314 242.85 26.9158 242.66 26.6846C242.471 26.4535 242.377 26.1593 242.377 25.802C242.377 25.3817 242.471 24.9299 242.66 24.4466C242.85 23.9423 243.06 23.4694 243.291 23.0281C243.018 23.3644 242.671 23.7742 242.251 24.2575C241.83 24.7198 241.452 25.1086 241.116 25.4238C240.654 25.8441 240.212 26.2223 239.792 26.5585C239.372 26.8738 238.93 27.0314 238.468 27.0314Z" fill="#C64832"/>
</svg>
