<svg xmlns="http://www.w3.org/2000/svg" width="29" height="30" viewBox="0 0 29 30" fill="none">
  <path d="M25.0001 25.7142L17.8572 18.5714M3.57153 12.619C3.57153 13.7133 3.78708 14.797 4.20587 15.808C4.62466 16.8191 5.23849 17.7377 6.01231 18.5115C6.78613 19.2854 7.70479 19.8992 8.71584 20.318C9.72688 20.7368 10.8105 20.9523 11.9049 20.9523C12.9992 20.9523 14.0828 20.7368 15.0939 20.318C16.1049 19.8992 17.0236 19.2854 17.7974 18.5115C18.5712 17.7377 19.1851 16.8191 19.6039 15.808C20.0227 14.797 20.2382 13.7133 20.2382 12.619C20.2382 11.5246 20.0227 10.441 19.6039 9.42995C19.1851 8.4189 18.5712 7.50024 17.7974 6.72642C17.0236 5.9526 16.1049 5.33877 15.0939 4.91998C14.0828 4.50119 12.9992 4.28564 11.9049 4.28564C10.8105 4.28564 9.72688 4.50119 8.71584 4.91998C7.70479 5.33877 6.78613 5.9526 6.01231 6.72642C5.23849 7.50024 4.62466 8.4189 4.20587 9.42995C3.78708 10.441 3.57153 11.5246 3.57153 12.619Z" stroke="white" stroke-width="2.38095" stroke-linecap="round" stroke-linejoin="round"/>
</svg>